<svg width="1035" height="473" viewBox="0 0 1035 473" fill="none" xmlns="http://www.w3.org/2000/svg">
<rect width="1035" height="473" fill="white"/>
<path d="M342.973 360.077H298.503V438.125H190.682V360.077H30V280.35L197.814 34.8746H298.503V278.671H342.973V360.077ZM190.682 278.671V231.674C190.682 222.862 191.102 211.113 191.521 196.007C192.36 180.901 192.78 173.348 193.199 172.509H190.262C183.969 186.776 176.837 199.784 168.866 212.372L124.395 278.671H190.682Z" fill="#1BBB5B" fill-opacity="0.35"/>
<path d="M662.659 237.129C662.659 308.464 650.493 360.916 626.999 394.066C603.085 427.215 566.586 444 517.081 444C468.834 444 432.754 426.796 408.002 391.968C383.668 357.14 371.502 305.527 371.502 237.129C371.502 165.375 383.249 112.923 407.582 79.3539C431.495 45.7846 467.995 29 517.5 29C565.327 29 601.827 46.6239 626.16 81.452C650.493 116.28 662.659 167.893 662.659 237.129ZM479.742 237.129C479.742 282.868 482.679 314.339 488.133 331.123C494.006 348.328 503.236 356.72 516.661 356.72C530.086 356.72 539.736 347.908 545.609 330.284C551.063 312.66 554 281.609 554 237.129C554 192.231 551.063 161.179 545.609 143.135C539.736 125.092 530.506 116.28 517.081 116.28C503.656 116.28 494.006 125.092 488.552 142.296C482.679 159.501 479.742 190.972 479.742 237.129Z" fill="#1BBB5B" fill-opacity="0.35"/>
<path d="M1005 360.077H960.529V438.125H852.709V360.077H692.027V280.35L859.841 34.8746H960.529V278.671H1005V360.077ZM853.128 278.671V231.674C853.128 222.862 853.548 211.113 853.967 196.007C854.807 180.901 855.226 173.348 855.646 172.509H852.709C846.416 186.776 839.284 199.784 831.313 212.372L786.422 279.091H853.128V278.671Z" fill="#1BBB5B" fill-opacity="0.35"/>
<g clip-path="url(#clip0_213_481)">
<path d="M624.206 253.661C657.119 253.661 683.8 226.942 683.8 193.983C683.8 161.023 657.119 134.305 624.206 134.305C591.293 134.305 564.612 161.023 564.612 193.983C564.612 226.942 591.293 253.661 624.206 253.661Z" fill="white"/>
<path d="M428.139 253.661C461.052 253.661 487.734 226.942 487.734 193.983C487.734 161.023 461.052 134.305 428.139 134.305C395.226 134.305 368.545 161.023 368.545 193.983C368.545 226.942 395.226 253.661 428.139 253.661Z" fill="white"/>
<path d="M463.176 145.817C469.277 155.215 472.796 166.336 472.796 178.397C472.796 211.369 446.127 238.075 413.202 238.075C400.063 238.075 387.941 233.768 378.086 226.563C388.723 242.931 407.101 253.661 428.061 253.661C460.987 253.661 487.655 226.954 487.655 193.983C487.655 174.247 478.036 156.703 463.176 145.817Z" fill="#EFEFEF"/>
<path d="M659.243 145.817C665.343 155.215 668.862 166.336 668.862 178.397C668.862 211.369 642.194 238.075 609.268 238.075C596.129 238.075 584.007 233.768 574.153 226.563C584.789 242.931 603.168 253.661 624.128 253.661C657.053 253.661 683.722 226.954 683.722 193.983C683.722 174.247 674.024 156.703 659.243 145.817Z" fill="#EFEFEF"/>
<path d="M428.139 256.48C393.806 256.48 365.808 228.442 365.808 194.061C365.808 159.679 393.806 131.642 428.139 131.642C462.472 131.642 490.471 159.679 490.471 194.061C490.471 228.442 462.472 256.48 428.139 256.48ZM428.139 137.046C396.778 137.046 371.282 162.577 371.282 193.983C371.282 225.388 396.778 250.92 428.139 250.92C459.5 250.92 484.996 225.388 484.996 193.983C484.996 162.656 459.5 137.046 428.139 137.046Z" fill="#231F20"/>
<path d="M406.945 203.616C422.883 203.616 435.804 190.677 435.804 174.716C435.804 158.756 422.883 145.817 406.945 145.817C391.007 145.817 378.086 158.756 378.086 174.716C378.086 190.677 391.007 203.616 406.945 203.616Z" fill="#231F20"/>
<path d="M399.906 181.295C406.428 181.295 411.715 176 411.715 169.469C411.715 162.938 406.428 157.643 399.906 157.643C393.384 157.643 388.097 162.938 388.097 169.469C388.097 176 393.384 181.295 399.906 181.295Z" fill="white"/>
<path d="M624.206 256.48C589.873 256.48 561.875 228.442 561.875 194.061C561.875 159.679 589.873 131.642 624.206 131.642C658.539 131.642 686.538 159.679 686.538 194.061C686.538 228.442 658.539 256.48 624.206 256.48ZM624.206 137.046C592.845 137.046 567.349 162.577 567.349 193.983C567.349 225.388 592.845 250.92 624.206 250.92C655.567 250.92 681.063 225.388 681.063 193.983C681.063 162.656 655.567 137.046 624.206 137.046Z" fill="#231F20"/>
<path d="M642.037 243.323C657.976 243.323 670.896 230.384 670.896 214.424C670.896 198.463 657.976 185.524 642.037 185.524C626.099 185.524 613.179 198.463 613.179 214.424C613.179 230.384 626.099 243.323 642.037 243.323Z" fill="#231F20"/>
<path d="M634.999 221.002C641.521 221.002 646.808 215.708 646.808 209.176C646.808 202.645 641.521 197.35 634.999 197.35C628.477 197.35 623.189 202.645 623.189 209.176C623.189 215.708 628.477 221.002 634.999 221.002Z" fill="white"/>
<path d="M351.887 112.846C361.975 124.437 371.047 103.447 402.252 96.8688C428.295 91.3865 444.563 104.466 449.099 94.5975C453.635 84.7295 432.832 70.9456 394.51 77.0544C365.964 81.5185 340.155 99.3749 351.887 112.846Z" fill="#231F20"/>
<path d="M699.677 114.725C688.962 125.768 681.063 104.309 650.249 96.0073C624.519 89.1153 607.548 101.255 603.559 91.1516C599.571 81.0486 621.078 68.4395 659.009 76.5845C687.32 82.6933 712.112 101.881 699.677 114.725Z" fill="#231F20"/>
<path d="M517.374 387.192C498.292 387.192 483.823 370.432 469.668 354.064C456.842 339.183 443.546 323.755 427.826 323.05C392.398 321.405 353.998 371.215 353.607 371.685C351.652 374.27 347.976 374.74 345.396 372.782C342.815 370.824 342.345 367.143 344.301 364.558C346.021 362.365 385.36 311.302 426.106 311.302C426.888 311.302 427.592 311.302 428.374 311.381C449.099 312.399 464.037 329.707 478.505 346.467C493.834 364.245 507.129 379.595 524.257 374.426C540.524 369.492 554.992 353.907 569.07 338.87C586.666 319.996 604.811 300.495 627.178 302.922C648.607 305.272 666.204 318.351 678.17 340.75C686.929 357.197 689.51 372.86 689.588 373.487C690.135 376.698 687.945 379.674 684.739 380.222C681.532 380.77 678.561 378.577 678.013 375.366C677.935 374.818 668.315 319.134 625.927 314.592C609.425 312.79 594.018 329.394 577.673 346.859C562.578 362.992 547.015 379.752 527.698 385.626C524.1 386.644 520.659 387.192 517.374 387.192Z" fill="#231F20"/>
<path d="M328.424 353.907C323.966 365.028 325.843 378.342 332.648 388.132C334.603 390.952 336.871 393.458 339.608 395.572C340.468 396.277 341.641 396.434 342.424 395.572C343.127 394.867 343.284 393.379 342.424 392.753C333.742 385.939 329.285 374.818 330.145 363.854C330.38 360.799 331.162 357.823 332.257 354.925C332.648 353.907 331.787 352.733 330.849 352.419C329.754 352.184 328.815 352.889 328.424 353.907Z" fill="#231F20"/>
<path d="M682.706 397.843C689.822 399.018 696.314 394.476 700.772 389.307C704.995 384.373 708.045 378.264 709.296 371.92C710 368.239 710.235 364.48 709.844 360.799C709.765 359.703 708.983 358.763 707.81 358.763C706.794 358.763 705.699 359.703 705.777 360.799C706.95 371.999 702.336 384.451 693.029 391.108C690.37 392.988 687.085 394.554 683.722 394.006C682.627 393.849 681.532 394.319 681.22 395.416C681.063 396.355 681.611 397.687 682.706 397.843Z" fill="#231F20"/>
</g>
<defs>
<clipPath id="clip0_213_481">
<rect width="384" height="324" fill="white" transform="translate(326 74)"/>
</clipPath>
</defs>
</svg>
