<svg width="1035" height="485" viewBox="0 0 1035 485" fill="none" xmlns="http://www.w3.org/2000/svg">
<path d="M342.973 360.077H298.503V438.125H190.682V360.077H30V280.35L197.814 34.8746H298.503V278.671H342.973V360.077ZM190.682 278.671V231.674C190.682 222.862 191.102 211.113 191.521 196.007C192.36 180.901 192.78 173.348 193.199 172.509H190.262C183.969 186.776 176.837 199.784 168.866 212.372L124.395 278.671H190.682Z" fill="#1BBB5B" fill-opacity="0.35"/>
<path d="M662.659 237.129C662.659 308.464 650.493 360.916 626.999 394.066C603.085 427.215 566.586 444 517.081 444C468.834 444 432.754 426.796 408.002 391.968C383.668 357.14 371.502 305.527 371.502 237.129C371.502 165.375 383.249 112.923 407.582 79.3539C431.495 45.7846 467.995 29 517.5 29C565.327 29 601.827 46.6239 626.16 81.452C650.493 116.28 662.659 167.893 662.659 237.129ZM479.742 237.129C479.742 282.868 482.679 314.339 488.133 331.123C494.006 348.328 503.236 356.72 516.661 356.72C530.086 356.72 539.736 347.908 545.609 330.284C551.063 312.66 554 281.609 554 237.129C554 192.231 551.063 161.179 545.609 143.135C539.736 125.092 530.506 116.28 517.081 116.28C503.656 116.28 494.006 125.092 488.552 142.296C482.679 159.501 479.742 190.972 479.742 237.129Z" fill="#1BBB5B" fill-opacity="0.35"/>
<path d="M1005 360.077H960.529V438.125H852.709V360.077H692.027V280.35L859.841 34.8746H960.529V278.671H1005V360.077ZM853.128 278.671V231.674C853.128 222.862 853.548 211.113 853.967 196.007C854.807 180.901 855.226 173.348 855.646 172.509H852.709C846.416 186.776 839.284 199.784 831.313 212.372L786.422 279.091H853.128V278.671Z" fill="#1BBB5B" fill-opacity="0.35"/>
<path d="M624.2 228.687C657.113 228.687 683.794 201.968 683.794 169.009C683.794 136.05 657.113 109.331 624.2 109.331C591.287 109.331 564.605 136.05 564.605 169.009C564.605 201.968 591.287 228.687 624.2 228.687Z" fill="white"/>
<path d="M428.133 228.687C461.046 228.687 487.727 201.968 487.727 169.009C487.727 136.05 461.046 109.331 428.133 109.331C395.22 109.331 368.539 136.05 368.539 169.009C368.539 201.968 395.22 228.687 428.133 228.687Z" fill="white"/>
<path d="M463.17 120.844C469.27 130.242 472.79 141.363 472.79 153.424C472.79 186.395 446.121 213.102 413.195 213.102C400.056 213.102 387.934 208.794 378.08 201.589C388.716 217.957 407.095 228.687 428.055 228.687C460.98 228.687 487.649 201.981 487.649 169.009C487.649 149.273 478.03 131.73 463.17 120.844Z" fill="#EFEFEF"/>
<path d="M659.237 120.844C665.337 130.242 668.856 141.363 668.856 153.424C668.856 186.395 642.187 213.102 609.262 213.102C596.123 213.102 584.001 208.794 574.146 201.589C584.783 217.957 603.162 228.687 624.121 228.687C657.047 228.687 683.716 201.981 683.716 169.009C683.716 149.273 674.018 131.73 659.237 120.844Z" fill="#EFEFEF"/>
<path d="M428.133 231.506C393.8 231.506 365.801 203.469 365.801 169.087C365.801 134.706 393.8 106.668 428.133 106.668C462.466 106.668 490.464 134.706 490.464 169.087C490.464 203.469 462.466 231.506 428.133 231.506ZM428.133 112.072C396.772 112.072 371.276 137.604 371.276 169.009C371.276 200.414 396.772 225.946 428.133 225.946C459.494 225.946 484.99 200.414 484.99 169.009C484.99 137.682 459.494 112.072 428.133 112.072Z" fill="#231F20"/>
<path d="M406.939 178.642C422.877 178.642 435.797 165.703 435.797 149.743C435.797 133.782 422.877 120.844 406.939 120.844C391.001 120.844 378.08 133.782 378.08 149.743C378.08 165.703 391.001 178.642 406.939 178.642Z" fill="#231F20"/>
<path d="M399.9 156.321C406.422 156.321 411.709 151.027 411.709 144.496C411.709 137.964 406.422 132.67 399.9 132.67C393.378 132.67 388.09 137.964 388.09 144.496C388.09 151.027 393.378 156.321 399.9 156.321Z" fill="white"/>
<path d="M624.2 231.506C589.867 231.506 561.868 203.469 561.868 169.087C561.868 134.706 589.867 106.668 624.2 106.668C658.533 106.668 686.531 134.706 686.531 169.087C686.531 203.469 658.533 231.506 624.2 231.506ZM624.2 112.072C592.838 112.072 567.343 137.604 567.343 169.009C567.343 200.414 592.838 225.946 624.2 225.946C655.561 225.946 681.057 200.414 681.057 169.009C681.057 137.682 655.561 112.072 624.2 112.072Z" fill="#231F20"/>
<path d="M642.031 218.349C657.969 218.349 670.89 205.41 670.89 189.45C670.89 173.489 657.969 160.551 642.031 160.551C626.093 160.551 613.172 173.489 613.172 189.45C613.172 205.41 626.093 218.349 642.031 218.349Z" fill="#231F20"/>
<path d="M634.992 196.029C641.515 196.029 646.802 190.734 646.802 184.203C646.802 177.671 641.515 172.377 634.992 172.377C628.47 172.377 623.183 177.671 623.183 184.203C623.183 190.734 628.47 196.029 634.992 196.029Z" fill="white"/>
<path d="M351.88 87.8719C361.969 99.4629 371.041 78.4738 402.246 71.8951C428.289 66.4129 444.556 79.4919 449.092 69.6239C453.628 59.7559 432.825 45.972 394.503 52.0807C365.958 56.5448 340.149 74.4013 351.88 87.8719Z" fill="#231F20"/>
<path d="M699.67 89.7515C688.956 100.794 681.057 79.3353 650.243 71.0336C624.513 64.1416 607.542 76.2809 603.553 66.1779C599.564 56.0749 621.072 43.4658 659.002 51.6108C687.313 57.7196 712.105 76.9074 699.67 89.7515Z" fill="#231F20"/>
<path d="M517.368 362.219C498.285 362.219 483.817 345.459 469.661 329.09C456.835 314.21 443.54 298.781 427.82 298.076C392.392 296.432 353.992 346.242 353.601 346.712C351.646 349.296 347.97 349.766 345.389 347.808C342.808 345.85 342.339 342.169 344.294 339.585C346.015 337.392 385.353 286.329 426.1 286.329C426.882 286.329 427.586 286.329 428.368 286.407C449.093 287.425 464.03 304.733 478.499 321.493C493.827 339.271 507.123 354.622 524.25 349.453C540.518 344.519 554.986 328.934 569.063 313.897C586.66 295.022 604.804 275.521 627.172 277.949C648.601 280.298 666.197 293.377 678.163 315.776C686.922 332.223 689.503 347.886 689.582 348.513C690.129 351.724 687.939 354.7 684.733 355.248C681.526 355.796 678.554 353.604 678.007 350.393C677.929 349.844 668.309 294.161 625.92 289.618C609.419 287.817 594.012 304.42 577.666 321.885C562.572 338.018 547.009 354.778 527.691 360.652C524.094 361.67 520.653 362.219 517.368 362.219Z" fill="#231F20"/>
<path d="M328.418 328.934C323.96 340.055 325.837 353.369 332.641 363.158C334.596 365.978 336.864 368.484 339.602 370.599C340.462 371.303 341.635 371.46 342.417 370.599C343.121 369.894 343.277 368.406 342.417 367.779C333.736 360.966 329.278 349.844 330.139 338.88C330.373 335.826 331.155 332.85 332.25 329.952C332.641 328.934 331.781 327.759 330.842 327.446C329.748 327.211 328.809 327.916 328.418 328.934Z" fill="#231F20"/>
<path d="M682.699 372.87C689.816 374.045 696.307 369.502 700.765 364.333C704.988 359.399 708.039 353.29 709.29 346.947C709.994 343.266 710.228 339.506 709.837 335.826C709.759 334.729 708.977 333.789 707.804 333.789C706.787 333.789 705.692 334.729 705.771 335.826C706.944 347.025 702.329 359.477 693.023 366.134C690.364 368.014 687.079 369.58 683.716 369.032C682.621 368.876 681.526 369.345 681.213 370.442C681.057 371.382 681.604 372.713 682.699 372.87Z" fill="#231F20"/>
</svg>
