<svg width="1440" height="1024" viewBox="0 0 1440 1024" fill="none" xmlns="http://www.w3.org/2000/svg">
<path d="M-446 239.474C-320.43 179.851 -281.126 242.977 -155.556 183.354C-29.986 123.731 -69.2896 60.6057 56.2444 0.999998C181.778 -58.6057 221.118 4.50242 346.688 -55.1204C472.258 -114.743 432.955 -177.869 558.525 -237.491C684.095 -297.114 723.399 -233.989 849.005 -293.629C974.611 -353.269 935.271 -416.377 1060.84 -476" stroke="#1DB6A1" stroke-opacity="0.29" stroke-width="5" stroke-miterlimit="10"/>
<path d="M-131.411 744.733C-5.84125 685.11 33.4624 748.235 159.032 688.612C284.603 628.99 245.299 565.864 370.833 506.259C496.367 446.653 535.707 509.761 661.277 450.138C786.847 390.515 747.543 327.39 873.113 267.767C998.684 208.144 1037.99 271.27 1163.59 211.63C1289.2 151.99 1249.86 88.8816 1375.43 29.2587" stroke="#1DB6A1" stroke-opacity="0.29" stroke-width="5" stroke-miterlimit="10"/>
<path d="M-288.706 492.104C-163.136 432.481 -123.832 495.606 1.73816 435.983C127.308 376.36 88.0047 313.235 213.539 253.629C339.073 194.024 378.412 257.132 503.983 197.509C629.553 137.886 590.249 74.7608 715.819 15.1379C841.389 -44.4849 880.693 18.6403 1006.3 -40.9997C1131.91 -100.64 1092.57 -163.748 1218.14 -223.371" stroke="#1DB6A1" stroke-opacity="0.29" stroke-width="5" stroke-miterlimit="10"/>
<path d="M25.8831 997.362C151.453 937.739 190.837 1000.99 316.407 941.37C441.977 881.747 402.593 818.494 528.127 758.888C653.661 699.282 693.081 762.519 818.651 702.896C944.221 643.273 904.838 580.02 1030.41 520.397C1155.98 460.774 1195.36 524.027 1320.97 464.387C1446.57 404.747 1407.15 341.511 1532.72 281.888" stroke="#1DB6A1" stroke-opacity="0.29" stroke-width="5" stroke-miterlimit="10"/>
<path d="M242.213 1344.81C367.783 1285.19 407.087 1348.31 532.657 1288.69C658.227 1229.06 618.923 1165.94 744.457 1106.33C869.991 1046.73 909.331 1109.84 1034.9 1050.21C1160.47 990.591 1121.17 927.465 1246.74 867.842C1372.31 808.22 1411.61 871.345 1537.22 811.705C1662.82 752.065 1623.48 688.957 1749.05 629.334" stroke="#1DB6A1" stroke-opacity="0.29" stroke-width="5" stroke-miterlimit="10"/>
<path d="M-367.393 365.725C-241.822 306.102 -202.439 369.355 -76.8688 309.732C48.7013 250.11 9.3178 186.856 134.852 127.25C260.386 67.6447 299.805 130.881 425.376 71.2583C550.946 11.6354 511.562 -51.6182 637.132 -111.241C762.702 -170.864 802.086 -107.61 927.692 -167.25C1053.3 -226.89 1013.88 -290.127 1139.45 -349.75" stroke="#1DB6A1" stroke-opacity="0.29" stroke-width="5" stroke-miterlimit="10"/>
<path d="M-52.724 871.112C72.8461 811.489 112.15 874.614 237.72 814.991C363.29 755.368 323.986 692.243 449.52 632.637C575.054 573.032 614.394 636.14 739.964 576.517C865.534 516.894 826.231 453.769 951.801 394.146C1077.37 334.523 1116.67 397.648 1242.28 338.008C1367.89 278.368 1328.55 215.26 1454.12 155.637" stroke="#1DB6A1" stroke-opacity="0.29" stroke-width="5" stroke-miterlimit="10"/>
<path d="M-210.019 618.482C-84.4487 558.86 -45.1451 621.985 80.4251 562.362C205.995 502.739 166.692 439.614 292.226 380.008C417.76 320.402 457.099 383.511 582.669 323.888C708.24 264.265 668.936 201.14 794.506 141.517C920.076 81.894 959.38 145.019 1084.99 85.3792C1210.59 25.7392 1171.25 -37.3689 1296.82 -96.9918" stroke="#1DB6A1" stroke-opacity="0.29" stroke-width="5" stroke-miterlimit="10"/>
<path d="M104.57 1123.74C230.14 1064.12 269.444 1127.24 395.014 1067.62C520.584 1008 481.281 944.873 606.815 885.267C732.349 825.662 771.688 888.77 897.259 829.147C1022.83 769.524 983.525 706.399 1109.1 646.776C1234.67 587.153 1273.97 650.278 1399.58 590.638C1525.18 530.998 1485.84 467.89 1611.41 408.268" stroke="#1DB6A1" stroke-opacity="0.29" stroke-width="5" stroke-miterlimit="10"/>
<path d="M320.82 1471.06C446.39 1411.44 485.774 1474.69 611.344 1415.07C736.914 1355.44 697.53 1292.19 823.064 1232.58C948.598 1172.98 988.018 1236.21 1113.59 1176.59C1239.16 1116.97 1199.77 1053.72 1325.34 994.093C1450.92 934.47 1490.3 997.723 1615.9 938.083C1741.51 878.443 1702.09 815.207 1827.66 755.584" stroke="#1DB6A1" stroke-opacity="0.29" stroke-width="5" stroke-miterlimit="10"/>
<path d="M-406.697 302.599C-281.126 242.977 -241.823 306.102 -116.253 246.479C9.31744 186.856 -29.9862 123.731 95.5478 64.1251C221.082 4.51943 260.422 67.6275 385.992 8.0047C511.562 -51.6182 472.258 -114.743 597.828 -174.366C723.398 -233.989 762.702 -170.864 888.308 -230.504C1013.91 -290.144 974.575 -353.252 1100.14 -412.875" stroke="#1DB6A1" stroke-opacity="0.29" stroke-width="5" stroke-miterlimit="10"/>
<path d="M-92.1077 807.858C33.4625 748.235 72.846 811.489 198.416 751.866C323.986 692.243 284.603 628.99 410.137 569.384C535.671 509.778 575.09 573.015 700.66 513.392C826.231 453.769 786.847 390.515 912.417 330.893C1037.99 271.27 1077.37 334.523 1202.98 274.883C1328.58 215.243 1289.16 152.007 1414.73 92.384" stroke="#1DB6A1" stroke-opacity="0.29" stroke-width="5" stroke-miterlimit="10"/>
<path d="M-249.402 555.229C-123.832 495.606 -84.4481 558.86 41.122 499.237C166.692 439.614 127.309 376.36 252.843 316.755C378.377 257.149 417.796 320.385 543.366 260.763C668.937 201.14 629.553 137.886 755.123 78.2634C880.693 18.6405 920.077 81.8941 1045.68 22.2541C1171.29 -37.3859 1131.87 -100.622 1257.44 -160.245" stroke="#1DB6A1" stroke-opacity="0.29" stroke-width="5" stroke-miterlimit="10"/>
<path d="M65.2666 1060.62C190.837 1000.99 230.14 1064.12 355.71 1004.5C481.281 944.872 441.977 881.747 567.511 822.141C693.045 762.536 732.385 825.644 857.955 766.021C983.525 706.398 944.221 643.273 1069.79 583.65C1195.36 524.027 1234.67 587.153 1360.27 527.513C1485.88 467.873 1446.54 404.764 1572.11 345.142" stroke="#1DB6A1" stroke-opacity="0.29" stroke-width="5" stroke-miterlimit="10"/>
<path d="M281.516 1407.93C407.087 1348.31 446.39 1411.44 571.96 1351.81C697.53 1292.19 658.227 1229.06 783.761 1169.46C909.295 1109.85 948.635 1172.96 1074.2 1113.34C1199.77 1053.72 1160.47 990.59 1286.04 930.967C1411.61 871.345 1450.92 934.47 1576.52 874.83C1702.13 815.19 1662.79 752.082 1788.36 692.459" stroke="#1DB6A1" stroke-opacity="0.29" stroke-width="5" stroke-miterlimit="10"/>
<path d="M-328.009 428.978C-202.439 369.355 -163.136 432.481 -37.5654 372.858C88.0047 313.235 48.7011 250.11 174.235 190.504C299.769 130.898 339.109 194.006 464.679 134.384C590.249 74.7608 550.945 11.6355 676.516 -47.9873C802.086 -107.61 841.389 -44.4849 966.996 -104.125C1092.6 -163.765 1053.26 -226.873 1178.83 -286.496" stroke="#1DB6A1" stroke-opacity="0.29" stroke-width="5" stroke-miterlimit="10"/>
<path d="M-13.4203 934.237C112.15 874.614 151.453 937.739 277.024 878.116C402.594 818.494 363.29 755.368 488.824 695.763C614.358 636.157 653.698 699.265 779.268 639.642C904.838 580.019 865.534 516.894 991.105 457.271C1116.67 397.648 1155.98 460.774 1281.58 401.134C1407.19 341.494 1367.85 278.385 1493.42 218.763" stroke="#1DB6A1" stroke-opacity="0.29" stroke-width="5" stroke-miterlimit="10"/>
<path d="M202.909 1281.68C328.479 1222.06 367.783 1285.19 493.353 1225.56C618.923 1165.94 579.62 1102.81 705.154 1043.21C830.688 983.603 870.027 1046.71 995.597 987.088C1121.17 927.465 1081.86 864.34 1207.43 804.717C1333 745.094 1372.31 808.219 1497.91 748.579C1623.52 688.939 1584.18 625.831 1709.75 566.208" stroke="#1DB6A1" stroke-opacity="0.29" stroke-width="5" stroke-miterlimit="10"/>
<path d="M-170.715 681.607C-45.145 621.985 -5.84136 685.11 119.729 625.487C245.299 565.864 205.995 502.739 331.529 443.133C457.063 383.527 496.403 446.636 621.973 387.013C747.543 327.39 708.24 264.265 833.81 204.642C959.38 145.019 998.683 208.144 1124.29 148.504C1249.9 88.8642 1210.56 25.7561 1336.13 -33.8668" stroke="#1DB6A1" stroke-opacity="0.29" stroke-width="5" stroke-miterlimit="10"/>
<path d="M143.874 1186.87C269.444 1127.24 308.747 1190.37 434.318 1130.75C559.888 1071.12 520.584 1008 646.118 948.392C771.652 888.787 810.992 951.895 936.562 892.272C1062.13 832.649 1022.83 769.524 1148.4 709.901C1273.97 650.278 1313.27 713.403 1438.88 653.763C1564.48 594.123 1525.15 531.015 1650.72 471.392" stroke="#1DB6A1" stroke-opacity="0.29" stroke-width="5" stroke-miterlimit="10"/>
<path d="M360.203 1534.31C485.773 1474.69 525.077 1537.81 650.647 1478.19C776.217 1418.57 736.914 1355.44 862.448 1295.84C987.982 1236.23 1027.32 1299.34 1152.89 1239.72C1278.46 1180.09 1239.16 1116.97 1364.73 1057.35C1490.3 997.724 1529.6 1060.85 1655.21 1001.21C1780.81 941.569 1741.47 878.461 1867.04 818.838" stroke="#1DB6A1" stroke-opacity="0.29" stroke-width="5" stroke-miterlimit="10"/>
<path d="M-426.348 271.037C-300.778 211.414 -261.474 274.539 -135.904 214.916C-10.3342 155.294 -49.6378 92.1683 75.8962 32.5626C201.43 -27.0431 240.77 36.065 366.34 -23.5578C491.91 -83.1807 452.607 -146.306 578.177 -205.929C703.747 -265.552 743.05 -202.426 868.657 -262.066C994.263 -321.706 954.923 -384.814 1080.49 -444.437" stroke="#1DB6A1" stroke-opacity="0.29" stroke-width="5" stroke-miterlimit="10"/>
<path d="M-111.76 776.295C13.8105 716.673 53.194 779.926 178.764 720.303C304.334 660.68 264.951 597.427 390.485 537.821C516.019 478.215 555.438 541.452 681.008 481.829C806.579 422.206 767.195 358.953 892.765 299.33C1018.34 239.707 1057.72 302.961 1183.33 243.321C1308.93 183.681 1269.51 120.444 1395.08 60.8212" stroke="#1DB6A1" stroke-opacity="0.29" stroke-width="5" stroke-miterlimit="10"/>
<path d="M-269.054 523.666C-143.484 464.043 -104.18 527.168 21.3897 467.546C146.96 407.923 107.656 344.797 233.19 285.192C358.724 225.586 398.064 288.694 523.634 229.071C649.204 169.448 609.9 106.323 735.471 46.7004C861.041 -12.9224 900.344 50.2028 1025.95 -9.4372C1151.56 -69.0772 1112.22 -132.185 1237.79 -191.808" stroke="#1DB6A1" stroke-opacity="0.29" stroke-width="5" stroke-miterlimit="10"/>
<path d="M45.5349 1028.93C171.105 969.302 210.489 1032.56 336.059 972.933C461.629 913.31 422.245 850.056 547.779 790.451C673.313 730.845 712.733 794.082 838.303 734.459C963.873 674.836 924.49 611.582 1050.06 551.959C1175.63 492.337 1215.01 555.59 1340.62 495.95C1466.23 436.31 1426.81 373.074 1552.38 313.451" stroke="#1DB6A1" stroke-opacity="0.29" stroke-width="5" stroke-miterlimit="10"/>
<path d="M261.864 1376.37C387.434 1316.75 426.738 1379.87 552.308 1320.25C677.878 1260.63 638.575 1197.5 764.109 1137.9C889.643 1078.29 928.982 1141.4 1054.55 1081.78C1180.12 1022.15 1140.82 959.028 1266.39 899.405C1391.96 839.782 1431.26 902.907 1556.87 843.267C1682.48 783.627 1643.14 720.519 1768.71 660.896" stroke="#1DB6A1" stroke-opacity="0.29" stroke-width="5" stroke-miterlimit="10"/>
<path d="M-347.661 397.416C-222.091 337.793 -182.787 400.918 -57.217 341.295C68.3531 281.672 29.0495 218.547 154.583 158.941C280.117 99.3356 319.457 162.444 445.027 102.821C570.597 43.198 531.294 -19.9272 656.864 -79.5501C782.434 -139.173 821.738 -76.0477 947.344 -135.688C1072.95 -195.328 1033.61 -258.436 1159.18 -318.059" stroke="#1DB6A1" stroke-opacity="0.29" stroke-width="5" stroke-miterlimit="10"/>
<path d="M-33.0723 902.674C92.4979 843.051 131.801 906.177 257.372 846.554C382.942 786.931 343.638 723.806 469.172 664.2C594.706 604.594 634.046 667.702 759.616 608.08C885.186 548.457 845.882 485.332 971.453 425.709C1097.02 366.086 1136.33 429.211 1261.93 369.571C1387.54 309.931 1348.2 246.823 1473.77 187.2" stroke="#1DB6A1" stroke-opacity="0.29" stroke-width="5" stroke-miterlimit="10"/>
<path d="M183.177 1249.99C308.748 1190.37 348.131 1253.62 473.701 1194C599.271 1134.38 559.888 1071.12 685.422 1011.52C810.956 951.912 850.375 1015.15 975.946 955.526C1101.52 895.903 1062.13 832.649 1187.7 773.026C1313.27 713.403 1352.66 776.657 1478.26 717.017C1603.87 657.377 1564.45 594.141 1690.02 534.518" stroke="#1DB6A1" stroke-opacity="0.29" stroke-width="5" stroke-miterlimit="10"/>
<path d="M-190.367 650.045C-64.7965 590.422 -25.4928 653.547 100.077 593.924C225.647 534.302 186.344 471.176 311.878 411.571C437.412 351.965 476.752 415.073 602.322 355.45C727.892 295.827 688.588 232.702 814.158 173.079C939.728 113.456 979.032 176.582 1104.64 116.942C1230.24 57.3017 1190.9 -5.80641 1316.47 -65.4293" stroke="#1DB6A1" stroke-opacity="0.29" stroke-width="5" stroke-miterlimit="10"/>
<path d="M124.222 1155.3C249.792 1095.68 289.096 1158.81 414.666 1099.18C540.236 1039.56 500.932 976.435 626.466 916.829C752 857.224 791.34 920.332 916.91 860.709C1042.48 801.086 1003.18 737.961 1128.75 678.338C1254.32 618.715 1293.62 681.841 1419.23 622.2C1544.83 562.56 1505.49 499.452 1631.06 439.83" stroke="#1DB6A1" stroke-opacity="0.29" stroke-width="5" stroke-miterlimit="10"/>
<path d="M340.552 1502.75C466.122 1443.13 505.425 1506.25 630.995 1446.63C756.565 1387.01 717.262 1323.88 842.796 1264.28C968.33 1204.67 1007.67 1267.78 1133.24 1208.15C1258.81 1148.53 1219.51 1085.41 1345.08 1025.78C1470.65 966.161 1509.95 1029.29 1635.56 969.646C1761.16 910.006 1721.82 846.898 1847.39 787.275" stroke="#1DB6A1" stroke-opacity="0.29" stroke-width="5" stroke-miterlimit="10"/>
<path d="M-387.044 334.162C-261.474 274.539 -222.091 337.793 -96.5207 278.17C29.0494 218.547 -10.3341 155.294 115.2 95.6879C240.734 36.0822 280.154 99.3186 405.724 39.6958C531.294 -19.9271 491.91 -83.1807 617.48 -142.804C743.051 -202.426 782.434 -139.173 908.04 -198.813C1033.65 -258.453 994.227 -321.689 1119.8 -381.312" stroke="#1DB6A1" stroke-opacity="0.29" stroke-width="5" stroke-miterlimit="10"/>
<path d="M-72.376 839.549C53.1941 779.926 92.4978 843.052 218.068 783.429C343.638 723.806 304.334 660.681 429.868 601.075C555.402 541.469 594.742 604.577 720.312 544.955C845.882 485.332 806.579 422.207 932.149 362.584C1057.72 302.961 1097.02 366.086 1222.63 306.446C1348.24 246.806 1308.9 183.698 1434.47 124.075" stroke="#1DB6A1" stroke-opacity="0.29" stroke-width="5" stroke-miterlimit="10"/>
<path d="M-229.75 586.792C-104.18 527.169 -64.7966 590.422 60.7735 530.799C186.344 471.177 146.96 407.923 272.494 348.317C398.028 288.712 437.448 351.948 563.018 292.325C688.588 232.702 649.204 169.449 774.775 109.826C900.345 50.203 939.728 113.457 1065.33 53.8166C1190.94 -5.8234 1151.52 -69.0598 1277.09 -128.683" stroke="#1DB6A1" stroke-opacity="0.29" stroke-width="5" stroke-miterlimit="10"/>
<path d="M84.9185 1092.18C210.489 1032.56 249.792 1095.68 375.362 1036.06C500.932 976.435 461.629 913.31 587.163 853.704C712.697 794.099 752.037 857.207 877.607 797.584C1003.18 737.961 963.873 674.836 1089.44 615.213C1215.01 555.59 1254.32 618.715 1379.92 559.075C1505.53 499.435 1466.19 436.327 1591.76 376.704" stroke="#1DB6A1" stroke-opacity="0.29" stroke-width="5" stroke-miterlimit="10"/>
<path d="M301.168 1439.5C426.738 1379.87 466.122 1443.13 591.692 1383.5C717.262 1323.88 677.878 1260.63 803.412 1201.02C928.946 1141.42 968.366 1204.65 1093.94 1145.03C1219.51 1085.41 1180.12 1022.15 1305.69 962.53C1431.26 902.907 1470.65 966.161 1596.25 906.521C1721.86 846.881 1682.44 783.644 1808.01 724.021" stroke="#1DB6A1" stroke-opacity="0.29" stroke-width="5" stroke-miterlimit="10"/>
<path d="M-308.357 460.541C-182.787 400.918 -143.484 464.043 -17.9136 404.421C107.657 344.798 68.353 281.672 193.887 222.067C319.421 162.461 358.761 225.569 484.331 165.946C609.901 106.323 570.597 43.1983 696.167 -16.4246C821.738 -76.0474 861.041 -12.9222 986.647 -72.5622C1112.25 -132.202 1072.91 -195.31 1198.48 -254.933" stroke="#1DB6A1" stroke-opacity="0.29" stroke-width="5" stroke-miterlimit="10"/>
<path d="M6.23083 965.8C131.801 906.177 171.105 969.302 296.675 909.679C422.245 850.057 382.941 786.931 508.475 727.326C634.009 667.72 673.349 730.828 798.919 671.205C924.489 611.582 885.186 548.457 1010.76 488.834C1136.33 429.211 1175.63 492.337 1301.24 432.697C1426.84 373.057 1387.5 309.948 1513.07 250.326" stroke="#1DB6A1" stroke-opacity="0.29" stroke-width="5" stroke-miterlimit="10"/>
<path d="M222.561 1313.25C348.131 1253.62 387.434 1316.75 513.004 1257.12C638.575 1197.5 599.271 1134.38 724.805 1074.77C850.339 1015.17 889.679 1078.27 1015.25 1018.65C1140.82 959.028 1101.52 895.903 1227.09 836.28C1352.66 776.657 1391.96 839.782 1517.57 780.142C1643.17 720.502 1603.83 657.394 1729.4 597.771" stroke="#1DB6A1" stroke-opacity="0.29" stroke-width="5" stroke-miterlimit="10"/>
<path d="M-151.064 713.17C-25.4935 653.548 13.8101 716.673 139.38 657.05C264.95 597.427 225.647 534.302 351.181 474.696C476.715 415.09 516.055 478.199 641.625 418.576C767.195 358.953 727.891 295.828 853.461 236.205C979.031 176.582 1018.33 239.707 1143.94 180.067C1269.55 120.427 1230.21 57.3191 1355.78 -2.30377" stroke="#1DB6A1" stroke-opacity="0.29" stroke-width="5" stroke-miterlimit="10"/>
<path d="M163.525 1218.43C289.096 1158.81 328.479 1222.06 454.049 1162.44C579.619 1102.81 540.236 1039.56 665.77 979.955C791.304 920.349 830.723 983.586 956.294 923.963C1081.86 864.34 1042.48 801.086 1168.05 741.464C1293.62 681.841 1333 745.094 1458.61 685.454C1584.22 625.814 1544.8 562.578 1670.37 502.955" stroke="#1DB6A1" stroke-opacity="0.29" stroke-width="5" stroke-miterlimit="10"/>
<path d="M379.855 1565.88C505.425 1506.25 544.729 1569.38 670.299 1509.75C795.869 1450.13 756.565 1387.01 882.099 1327.4C1007.63 1267.8 1046.97 1330.9 1172.54 1271.28C1298.11 1211.66 1258.81 1148.53 1384.38 1088.91C1509.95 1029.29 1549.25 1092.41 1674.86 1032.77C1800.47 973.132 1761.13 910.024 1886.7 850.401" stroke="#1DB6A1" stroke-opacity="0.29" stroke-width="5" stroke-miterlimit="10"/>
</svg>
