<svg width="52" height="36" viewBox="0 0 52 36" fill="none" xmlns="http://www.w3.org/2000/svg">
<path id="Symbol - Rounded" d="M44.0202 2.9842C40.7059 1.60296 37.1518 0.585301 33.4358 0.00244344C33.3681 -0.00880141 33.3005 0.0193107 33.2656 0.0755349C32.8086 0.813947 32.3023 1.77726 31.9477 2.53441C27.9509 1.99091 23.9745 1.99091 20.0597 2.53441C19.7051 1.76039 19.1804 0.813947 18.7213 0.0755349C18.6864 0.0211849 18.6188 -0.00692727 18.5511 0.00244344C14.8372 0.583427 11.283 1.60109 7.9667 2.9842C7.938 2.99545 7.91341 3.01419 7.89701 3.03855C1.15568 12.1862 -0.691059 21.109 0.21489 29.9212C0.21899 29.9643 0.245635 30.0056 0.282529 30.0318C4.73029 32.9986 9.03867 34.7996 13.2671 35.9935C13.3348 36.0122 13.4065 35.9897 13.4495 35.9391C14.4498 34.6984 15.3414 33.3903 16.1059 32.0146C16.151 31.9341 16.1079 31.8385 16.0157 31.8066C14.6014 31.3193 13.2548 30.7252 11.9594 30.0505C11.8569 29.9962 11.8488 29.8631 11.943 29.7994C12.2156 29.6139 12.4882 29.4208 12.7486 29.2259C12.7957 29.1903 12.8613 29.1828 12.9166 29.2053C21.4268 32.7343 30.64 32.7343 39.0498 29.2053C39.1051 29.1809 39.1707 29.1884 39.2199 29.224C39.4802 29.419 39.7528 29.6139 40.0275 29.7994C40.1217 29.8631 40.1156 29.9962 40.0131 30.0505C38.7177 30.7384 37.3711 31.3193 35.9548 31.8047C35.8625 31.8366 35.8216 31.9341 35.8666 32.0146C36.6476 33.3884 37.5392 34.6965 38.521 35.9372C38.5619 35.9897 38.6357 36.0122 38.7034 35.9935C42.9523 34.7996 47.2607 32.9986 51.7085 30.0318C51.7474 30.0056 51.772 29.9662 51.7761 29.9231C52.8604 19.7353 49.9601 10.8856 44.0878 3.04043C44.0735 3.01419 44.0489 2.99545 44.0202 2.9842ZM17.3767 24.5556C14.8146 24.5556 12.7035 22.419 12.7035 19.7952C12.7035 17.1714 14.7736 15.0349 17.3767 15.0349C20.0002 15.0349 22.0909 17.1902 22.0499 19.7952C22.0499 22.419 19.9797 24.5556 17.3767 24.5556ZM34.6553 24.5556C32.0932 24.5556 29.9821 22.419 29.9821 19.7952C29.9821 17.1714 32.0522 15.0349 34.6553 15.0349C37.2789 15.0349 39.3695 17.1902 39.3285 19.7952C39.3285 22.419 37.2789 24.5556 34.6553 24.5556Z" fill="black"/>
</svg>
