<svg width="49" height="48" viewBox="0 0 49 48" fill="none" xmlns="http://www.w3.org/2000/svg">
<g id="Social Icons" clip-path="url(#clip0_373_376)">
<path id="Vector" d="M41.134 8.31115C38.0747 6.90738 34.794 5.87315 31.3638 5.28081C31.3013 5.26937 31.2389 5.29794 31.2067 5.35508C30.7848 6.10551 30.3175 7.08451 29.9902 7.854C26.3008 7.30166 22.6304 7.30166 19.0166 7.854C18.6893 7.06741 18.205 6.10551 17.7811 5.35508C17.749 5.29985 17.6866 5.27128 17.6241 5.28081C14.1958 5.87126 10.9151 6.90549 7.85387 8.31115C7.82737 8.32257 7.80465 8.34164 7.78958 8.36638C1.56678 17.6631 -0.1379 26.7313 0.69836 35.6871C0.702144 35.7309 0.72674 35.7728 0.760796 35.7995C4.86642 38.8145 8.84341 40.645 12.7466 41.8582C12.809 41.8773 12.8752 41.8544 12.915 41.803C13.8383 40.5421 14.6613 39.2127 15.367 37.8146C15.4086 37.7327 15.3688 37.6356 15.2837 37.6032C13.9783 37.108 12.7352 36.5042 11.5395 35.8185C11.4449 35.7633 11.4373 35.628 11.5243 35.5633C11.7759 35.3747 12.0276 35.1785 12.2679 34.9804C12.3114 34.9443 12.372 34.9366 12.4231 34.9595C20.2786 38.546 28.7831 38.546 36.5459 34.9595C36.597 34.9347 36.6576 34.9424 36.703 34.9785C36.9433 35.1766 37.1949 35.3747 37.4484 35.5633C37.5354 35.628 37.5298 35.7633 37.4352 35.8185C36.2394 36.5175 34.9964 37.108 33.689 37.6013C33.6039 37.6337 33.5661 37.7327 33.6077 37.8146C34.3285 39.2107 35.1515 40.5402 36.0578 41.8011C36.0957 41.8544 36.1637 41.8773 36.2262 41.8582C40.1483 40.645 44.1252 38.8145 48.2309 35.7995C48.2668 35.7728 48.2895 35.7328 48.2933 35.689C49.2942 25.3351 46.617 16.3413 41.1964 8.36827C41.1832 8.34164 41.1605 8.32257 41.134 8.31115ZM16.54 30.234C14.175 30.234 12.2263 28.0627 12.2263 25.3961C12.2263 22.7295 14.1372 20.5582 16.54 20.5582C18.9617 20.5582 20.8916 22.7486 20.8538 25.3961C20.8538 28.0627 18.9428 30.234 16.54 30.234ZM32.4895 30.234C30.1245 30.234 28.1758 28.0627 28.1758 25.3961C28.1758 22.7295 30.0867 20.5582 32.4895 20.5582C34.9113 20.5582 36.8411 22.7486 36.8033 25.3961C36.8033 28.0627 34.9113 30.234 32.4895 30.234Z" fill="black"/>
</g>
<defs>
<clipPath id="clip0_373_376">
<rect width="48" height="48" fill="white" transform="translate(0.5)"/>
</clipPath>
</defs>
</svg>
