<svg width="52" height="36" viewBox="0 0 52 36" fill="none" xmlns="http://www.w3.org/2000/svg">
<path d="M14.2035 4.95818C15.3209 4.1846 16.8364 3.75 18.4167 3.75H24.375V12H18.4167C16.8364 12 15.3209 11.5654 14.2035 10.7918C13.0861 10.0182 12.4583 8.96901 12.4583 7.875C12.4583 6.78098 13.0861 5.73177 14.2035 4.95818Z" fill="black"/>
<path d="M33.5833 12H27.625V3.75H33.5833C34.3658 3.75 35.1406 3.8567 35.8635 4.064C36.5864 4.2713 37.2432 4.57514 37.7965 4.95818C38.3498 5.34122 38.7887 5.79596 39.0881 6.29643C39.3876 6.7969 39.5417 7.33329 39.5417 7.875C39.5417 8.4167 39.3876 8.95309 39.0881 9.45356C38.7887 9.95403 38.3498 10.4088 37.7965 10.7918C37.2432 11.1748 36.5864 11.4787 35.8635 11.686C35.1406 11.8933 34.3658 12 33.5833 12Z" fill="black"/>
<path d="M33.5833 14.25C32.8009 14.25 32.0261 14.3567 31.3032 14.564C30.5803 14.7713 29.9234 15.0751 29.3702 15.4582C28.8169 15.8412 28.378 16.296 28.0786 16.7964C27.7791 17.2969 27.625 17.8333 27.625 18.375C27.625 18.9167 27.7791 19.4531 28.0786 19.9536C28.378 20.454 28.8169 20.9088 29.3702 21.2918C29.9234 21.6749 30.5803 21.9787 31.3032 22.186C32.0261 22.3933 32.8009 22.5 33.5833 22.5C34.3658 22.5 35.1406 22.3933 35.8635 22.186C36.5864 21.9787 37.2432 21.6749 37.7965 21.2918C38.3498 20.9088 38.7887 20.454 39.0881 19.9536C39.3876 19.4531 39.5417 18.9167 39.5417 18.375C39.5417 17.8333 39.3876 17.2969 39.0881 16.7964C38.7887 16.296 38.3498 15.8412 37.7965 15.4582C37.2432 15.0751 36.5864 14.7713 35.8635 14.564C35.1406 14.3567 34.3658 14.25 33.5833 14.25Z" fill="black"/>
<path d="M14.2035 25.9582C15.3209 25.1846 16.8364 24.75 18.4167 24.75H24.375V28.875C24.375 29.969 23.7472 31.0182 22.6298 31.7918C21.5124 32.5654 19.9969 33 18.4167 33C16.8364 33 15.3209 32.5654 14.2035 31.7918C13.0861 31.0182 12.4583 29.969 12.4583 28.875C12.4583 27.781 13.0861 26.7318 14.2035 25.9582Z" fill="black"/>
<path d="M18.4167 14.25C16.8364 14.25 15.3209 14.6846 14.2035 15.4582C13.0861 16.2318 12.4583 17.281 12.4583 18.375C12.4583 19.469 13.0861 20.5182 14.2035 21.2918C15.3209 22.0654 16.8364 22.5 18.4167 22.5H24.375V14.25H18.4167Z" fill="black"/>
</svg>
