<svg width="49" height="48" viewBox="0 0 49 48" fill="none" xmlns="http://www.w3.org/2000/svg">
<g id="Solid/Brands/Figma">
<g id="Subtract">
<path d="M13.6109 6.61091C14.6424 5.57946 16.0413 5 17.5 5H23V16H17.5C16.0413 16 14.6424 15.4205 13.6109 14.3891C12.5795 13.3576 12 11.9587 12 10.5C12 9.04131 12.5795 7.64236 13.6109 6.61091Z" fill="black"/>
<path d="M31.5 16H26V5H31.5C32.2223 5 32.9375 5.14226 33.6048 5.41866C34.272 5.69506 34.8784 6.10019 35.3891 6.61091C35.8998 7.12163 36.3049 7.72795 36.5813 8.39524C36.8577 9.06253 37 9.77773 37 10.5C37 11.2223 36.8577 11.9375 36.5813 12.6048C36.3049 13.272 35.8998 13.8784 35.3891 14.3891C34.8784 14.8998 34.272 15.3049 33.6048 15.5813C32.9375 15.8577 32.2223 16 31.5 16Z" fill="black"/>
<path d="M31.5 19C30.7777 19 30.0625 19.1423 29.3952 19.4187C28.728 19.6951 28.1216 20.1002 27.6109 20.6109C27.1002 21.1216 26.6951 21.728 26.4187 22.3952C26.1423 23.0625 26 23.7777 26 24.5C26 25.2223 26.1423 25.9375 26.4187 26.6048C26.6951 27.272 27.1002 27.8784 27.6109 28.3891C28.1216 28.8998 28.728 29.3049 29.3952 29.5813C30.0625 29.8577 30.7777 30 31.5 30C32.2223 30 32.9375 29.8577 33.6048 29.5813C34.272 29.3049 34.8784 28.8998 35.3891 28.3891C35.8998 27.8784 36.3049 27.272 36.5813 26.6048C36.8577 25.9375 37 25.2223 37 24.5C37 23.7777 36.8577 23.0625 36.5813 22.3952C36.3049 21.7279 35.8998 21.1216 35.3891 20.6109C34.8784 20.1002 34.272 19.6951 33.6048 19.4187C32.9375 19.1423 32.2223 19 31.5 19Z" fill="black"/>
<path d="M13.6109 34.6109C14.6424 33.5795 16.0413 33 17.5 33H23V38.5C23 39.9587 22.4205 41.3576 21.3891 42.3891C20.3576 43.4205 18.9587 44 17.5 44C16.0413 44 14.6424 43.4205 13.6109 42.3891C12.5795 41.3576 12 39.9587 12 38.5C12 37.0413 12.5795 35.6424 13.6109 34.6109Z" fill="black"/>
<path d="M17.5 19C16.0413 19 14.6424 19.5795 13.6109 20.6109C12.5795 21.6424 12 23.0413 12 24.5C12 25.9587 12.5795 27.3576 13.6109 28.3891C14.6424 29.4205 16.0413 30 17.5 30H23V19H17.5Z" fill="black"/>
</g>
</g>
</svg>
