<svg width="52" height="36" viewBox="0 0 52 36" fill="none" xmlns="http://www.w3.org/2000/svg">
<g id="mark-github-24">
<path id="Icon" fill-rule="evenodd" clip-rule="evenodd" d="M26 1.12201C12.2335 1.12201 1.08331 8.82096 1.08331 18.3264C1.08331 25.9393 8.21571 32.3694 18.1201 34.649C19.3659 34.7995 19.8331 34.2834 19.8331 33.8318C19.8331 33.4232 19.802 32.0684 19.802 30.6275C13.5416 31.4232 11.9221 29.5737 11.4237 28.606C11.1434 28.1114 9.92873 26.5845 8.86977 26.1759C7.99769 25.8533 6.75185 25.0576 8.83863 25.0361C10.8008 25.0146 12.2024 26.2834 12.6696 26.7995C14.9121 29.4017 18.4938 28.6705 19.9265 28.2189C20.1446 27.1006 20.7986 26.3479 21.515 25.9178C15.971 25.4877 10.1779 24.0038 10.1779 17.4231C10.1779 15.5522 11.1434 14.0038 12.7319 12.7995C12.4827 12.3694 11.6106 10.6059 12.981 8.24031C12.981 8.24031 15.0678 7.7887 19.8331 10.0038C21.8264 9.61666 23.9444 9.42311 26.0623 9.42311C28.1802 9.42311 30.2981 9.61666 32.2914 10.0038C37.0568 7.76719 39.1435 8.24031 39.1435 8.24031C40.5139 10.6059 39.6419 12.3694 39.3927 12.7995C40.9811 14.0038 41.9466 15.5307 41.9466 17.4231C41.9466 24.0253 36.1224 25.4877 30.5784 25.9178C31.4816 26.4554 32.2603 27.4877 32.2603 29.1006C32.2603 31.4017 32.2291 33.2512 32.2291 33.8318C32.2291 34.2834 32.6963 34.8211 33.9422 34.649C43.7843 32.3694 50.9166 25.9178 50.9166 18.3264C50.9166 8.82096 39.7664 1.12201 26 1.12201Z" fill="black"/>
</g>
</svg>
