<svg width="49" height="48" viewBox="0 0 49 48" fill="none" xmlns="http://www.w3.org/2000/svg">
<path fill-rule="evenodd" clip-rule="evenodd" d="M24.5 1.5C11.7925 1.5 1.5 11.7925 1.5 24.5C1.5 34.6775 8.08375 43.2737 17.2262 46.3212C18.3762 46.5225 18.8075 45.8325 18.8075 45.2287C18.8075 44.6825 18.7788 42.8712 18.7788 40.945C13 42.0087 11.505 39.5362 11.045 38.2425C10.7863 37.5812 9.665 35.54 8.6875 34.9937C7.8825 34.5625 6.7325 33.4987 8.65875 33.47C10.47 33.4412 11.7637 35.1375 12.195 35.8275C14.265 39.3062 17.5713 38.3287 18.8938 37.725C19.095 36.23 19.6988 35.2237 20.36 34.6487C15.2425 34.0737 9.895 32.09 9.895 23.2925C9.895 20.7912 10.7862 18.7212 12.2525 17.1112C12.0225 16.5362 11.2175 14.1787 12.4825 11.0162C12.4825 11.0162 14.4088 10.4125 18.8075 13.3737C20.6475 12.8562 22.6025 12.5975 24.5575 12.5975C26.5125 12.5975 28.4675 12.8562 30.3075 13.3737C34.7063 10.3838 36.6325 11.0162 36.6325 11.0162C37.8975 14.1787 37.0925 16.5362 36.8625 17.1112C38.3287 18.7212 39.22 20.7625 39.22 23.2925C39.22 32.1187 33.8438 34.0737 28.7263 34.6487C29.56 35.3675 30.2788 36.7475 30.2788 38.9037C30.2788 41.98 30.25 44.4525 30.25 45.2287C30.25 45.8325 30.6813 46.5512 31.8313 46.3212C40.9163 43.2737 47.5 34.6487 47.5 24.5C47.5 11.7925 37.2075 1.5 24.5 1.5V1.5Z" fill="black"/>
</svg>
