<svg width="49" height="48" viewBox="0 0 49 48" fill="none" xmlns="http://www.w3.org/2000/svg">
<rect x="0.5" width="48" height="48" rx="3" fill="black"/>
<path d="M10 3.75C7.65279 3.75 5.75 5.65279 5.75 8C5.75 10.3472 7.65279 12.25 10 12.25C12.3472 12.25 14.25 10.3472 14.25 8C14.25 5.65279 12.3472 3.75 10 3.75Z" fill="white"/>
<path d="M6 15.75C5.86193 15.75 5.75 15.8619 5.75 16V42C5.75 42.1381 5.86193 42.25 6 42.25H14C14.1381 42.25 14.25 42.1381 14.25 42V16C14.25 15.8619 14.1381 15.75 14 15.75H6Z" fill="white"/>
<path d="M19 15.75C18.8619 15.75 18.75 15.8619 18.75 16V42C18.75 42.1381 18.8619 42.25 19 42.25H27C27.1381 42.25 27.25 42.1381 27.25 42V28C27.25 27.0054 27.6451 26.0516 28.3484 25.3484C29.0516 24.6451 30.0054 24.25 31 24.25C31.9946 24.25 32.9484 24.6451 33.6516 25.3484C34.3549 26.0516 34.75 27.0054 34.75 28V42C34.75 42.1381 34.8619 42.25 35 42.25H43C43.1381 42.25 43.25 42.1381 43.25 42V24.7605C43.25 19.907 39.0288 16.11 34.1997 16.549C32.7104 16.6844 31.2379 17.0546 29.8629 17.6439L27.25 18.7637V16C27.25 15.8619 27.1381 15.75 27 15.75H19Z" fill="white"/>
</svg>
