<svg width="52" height="36" viewBox="0 0 52 36" fill="none" xmlns="http://www.w3.org/2000/svg">
<rect width="52" height="36" fill="#F5F5F5"/>
<g clip-path="url(#clip0_0_1)">
<rect x="-1133" y="-945" width="1440" height="1024" fill="white"/>
<path d="M-1107.12 52.3624C-981.547 -7.26042 -942.163 55.9932 -816.593 -3.62968C-691.023 -63.2525 -730.407 -126.506 -604.873 -186.112C-479.339 -245.718 -439.919 -182.481 -314.349 -242.104C-188.779 -301.727 -228.162 -364.98 -102.592 -424.603C22.978 -484.226 62.3615 -420.972 187.968 -480.612C313.574 -540.252 274.154 -603.489 399.725 -663.112" stroke="#0E864C" stroke-opacity="0.07" stroke-width="5" stroke-miterlimit="10"/>
<path d="M-890.787 399.808C-765.217 340.185 -725.913 403.31 -600.343 343.688C-474.773 284.065 -514.077 220.939 -388.543 161.334C-263.009 101.728 -223.669 164.836 -98.0989 105.213C27.4712 45.5905 -11.8324 -17.5348 113.738 -77.1576C239.308 -136.78 278.611 -73.6552 404.218 -133.295C529.824 -192.935 490.484 -256.043 616.054 -315.666" stroke="#0E864C" stroke-opacity="0.07" stroke-width="5" stroke-miterlimit="10"/>
<path d="M-1028.43 178.742C-902.86 119.119 -863.556 182.244 -737.986 122.621C-612.416 62.9984 -651.719 -0.126852 -526.185 -59.7325C-400.651 -119.338 -361.312 -56.2301 -235.741 -115.853C-110.171 -175.476 -149.475 -238.601 -23.9049 -298.224C101.665 -357.847 140.969 -294.722 266.575 -354.362C392.181 -414.002 352.842 -477.11 478.412 -536.732" stroke="#0E864C" stroke-opacity="0.07" stroke-width="5" stroke-miterlimit="10"/>
<path d="M-812.18 526.058C-686.61 466.436 -647.226 529.689 -521.656 470.066C-396.086 410.443 -435.47 347.19 -309.936 287.584C-184.402 227.978 -144.982 291.215 -19.4118 231.592C106.158 171.969 66.7748 108.716 192.345 49.0927C317.915 -10.5301 357.299 52.7235 482.905 -6.91655C608.511 -66.5566 569.091 -129.793 694.662 -189.416" stroke="#0E864C" stroke-opacity="0.07" stroke-width="5" stroke-miterlimit="10"/>
<path d="M-1067.73 115.616C-942.163 55.993 -902.86 119.118 -777.29 59.4954C-651.719 -0.127428 -691.023 -63.2527 -565.489 -122.858C-439.955 -182.464 -400.615 -119.356 -275.045 -178.979C-149.475 -238.602 -188.779 -301.727 -63.2086 -361.35C62.3615 -420.973 101.665 -357.847 227.271 -417.487C352.878 -477.127 313.538 -540.235 439.108 -599.858" stroke="#0E864C" stroke-opacity="0.07" stroke-width="5" stroke-miterlimit="10"/>
<path d="M-851.484 462.933C-725.913 403.31 -686.61 466.435 -561.04 406.813C-435.47 347.19 -474.773 284.064 -349.239 224.459C-223.705 164.853 -184.365 227.961 -58.7953 168.338C66.7748 108.715 27.4712 45.5902 153.041 -14.0326C278.611 -73.6555 317.915 -10.5302 443.521 -70.1702C569.128 -129.81 529.788 -192.918 655.358 -252.541" stroke="#0E864C" stroke-opacity="0.07" stroke-width="5" stroke-miterlimit="10"/>
<path d="M-1146.42 -10.7631C-1020.85 -70.3859 -981.547 -7.26064 -855.976 -66.8835C-730.406 -126.506 -769.71 -189.632 -644.176 -249.237C-518.642 -308.843 -479.302 -245.735 -353.732 -305.358C-228.162 -364.981 -267.466 -428.106 -141.895 -487.729C-16.3254 -547.352 22.9783 -484.226 148.585 -543.866C274.191 -603.506 234.851 -666.614 360.421 -726.237" stroke="#0E864C" stroke-opacity="0.07" stroke-width="5" stroke-miterlimit="10"/>
<path d="M-930.091 336.683C-804.521 277.06 -765.217 340.185 -639.647 280.562C-514.077 220.939 -553.38 157.814 -427.846 98.2085C-302.312 38.6028 -262.973 101.711 -137.403 42.0881C-11.8325 -17.5348 -51.1361 -80.66 74.434 -140.283C200.004 -199.906 239.308 -136.78 364.914 -196.42C490.52 -256.06 451.181 -319.169 576.751 -378.791" stroke="#0E864C" stroke-opacity="0.07" stroke-width="5" stroke-miterlimit="10"/>
<path d="M-989.126 241.866C-863.556 182.244 -824.253 245.369 -698.682 185.746C-573.112 126.123 -612.416 62.9979 -486.882 3.39221C-361.348 -56.2135 -322.008 6.89463 -196.438 -52.7282C-70.868 -112.351 -110.172 -175.476 15.3985 -235.099C140.969 -294.722 180.272 -231.597 305.878 -291.237C431.485 -350.877 392.145 -413.985 517.715 -473.608" stroke="#0E864C" stroke-opacity="0.07" stroke-width="5" stroke-miterlimit="10"/>
<path d="M-772.797 589.312C-647.227 529.689 -607.923 592.814 -482.353 533.192C-356.783 473.569 -396.086 410.443 -270.552 350.838C-145.018 291.232 -105.679 354.34 19.8915 294.717C145.462 235.094 106.158 171.969 231.728 112.346C357.298 52.7236 396.602 115.849 522.208 56.2088C647.814 -3.4312 608.475 -66.5393 734.045 -126.162" stroke="#0E864C" stroke-opacity="0.07" stroke-width="5" stroke-miterlimit="10"/>
<path d="M-1087.47 83.925C-961.895 24.3022 -922.511 87.5558 -796.941 27.9329C-671.371 -31.6899 -710.755 -94.9435 -585.221 -154.549C-459.687 -214.155 -420.267 -150.918 -294.697 -210.541C-169.127 -270.164 -208.51 -333.418 -82.9403 -393.041C42.6298 -452.663 82.0134 -389.41 207.62 -449.05C333.226 -508.69 293.806 -571.926 419.376 -631.549" stroke="#0E864C" stroke-opacity="0.07" stroke-width="5" stroke-miterlimit="10"/>
<path d="M-871.136 431.37C-745.566 371.748 -706.262 434.873 -580.692 375.25C-455.122 315.627 -494.425 252.502 -368.891 192.896C-243.357 133.29 -204.018 196.399 -78.4475 136.776C47.1226 77.1528 7.81895 14.0276 133.389 -45.5953C258.959 -105.218 298.263 -42.0928 423.869 -101.733C549.475 -161.373 510.136 -224.481 635.706 -284.104" stroke="#0E864C" stroke-opacity="0.07" stroke-width="5" stroke-miterlimit="10"/>
<path d="M-1166.07 -42.3256C-1040.5 -101.948 -1001.2 -38.8231 -875.628 -98.446C-750.058 -158.069 -789.362 -221.194 -663.828 -280.8C-538.294 -340.406 -498.954 -277.297 -373.384 -336.92C-247.814 -396.543 -287.118 -459.668 -161.547 -519.291C-35.9773 -578.914 3.32632 -515.789 128.933 -575.429C254.539 -635.069 215.199 -698.177 340.769 -757.8" stroke="#0E864C" stroke-opacity="0.07" stroke-width="5" stroke-miterlimit="10"/>
<path d="M-949.823 304.992C-824.252 245.369 -784.869 308.623 -659.299 249C-533.729 189.377 -573.112 126.123 -447.578 66.5177C-322.044 6.912 -282.625 70.1484 -157.054 10.5256C-31.4843 -49.0973 -70.8678 -112.351 54.7023 -171.974C180.272 -231.597 219.656 -168.343 345.262 -227.983C470.868 -287.623 431.449 -350.859 557.019 -410.482" stroke="#0E864C" stroke-opacity="0.07" stroke-width="5" stroke-miterlimit="10"/>
<path d="M-1008.78 210.304C-883.208 150.681 -843.904 213.806 -718.334 154.183C-592.764 94.5603 -632.068 31.435 -506.534 -28.1707C-381 -87.7763 -341.66 -24.6682 -216.09 -84.2911C-90.5196 -143.914 -129.823 -207.039 -4.25314 -266.662C121.317 -326.285 160.621 -263.16 286.227 -322.8C411.833 -382.44 372.493 -445.548 498.064 -505.171" stroke="#0E864C" stroke-opacity="0.07" stroke-width="5" stroke-miterlimit="10"/>
<path d="M-792.448 557.75C-666.878 498.127 -627.575 561.252 -502.005 501.629C-376.435 442.006 -415.738 378.881 -290.204 319.275C-164.67 259.67 -125.33 322.778 0.23974 263.155C125.81 203.532 86.5062 140.407 212.076 80.784C337.646 21.1612 376.95 84.2864 502.556 24.6464C628.163 -34.9936 588.823 -98.1017 714.393 -157.725" stroke="#0E864C" stroke-opacity="0.07" stroke-width="5" stroke-miterlimit="10"/>
<path d="M-1048.08 147.178C-922.511 87.5556 -883.208 150.681 -757.638 91.058C-632.068 31.4352 -671.371 -31.6901 -545.837 -91.2958C-420.303 -150.901 -380.963 -87.7934 -255.393 -147.416C-129.823 -207.039 -169.127 -270.164 -43.5567 -329.787C82.0134 -389.41 121.317 -326.285 246.923 -385.925C372.53 -445.565 333.19 -508.673 458.76 -568.296" stroke="#0E864C" stroke-opacity="0.07" stroke-width="5" stroke-miterlimit="10"/>
<path d="M-831.832 494.496C-706.262 434.873 -666.878 498.126 -541.308 438.503C-415.738 378.881 -455.122 315.627 -329.588 256.021C-204.054 196.416 -164.634 259.652 -39.0638 200.029C86.5063 140.406 47.1228 77.1528 172.693 17.53C298.263 -42.0929 337.647 21.1607 463.253 -38.4793C588.859 -98.1193 549.439 -161.356 675.01 -220.979" stroke="#0E864C" stroke-opacity="0.07" stroke-width="5" stroke-miterlimit="10"/>
<path d="M-1126.77 20.7998C-1001.2 -38.823 -961.895 24.3022 -836.325 -35.3206C-710.755 -94.9435 -750.059 -158.069 -624.525 -217.674C-498.991 -277.28 -459.651 -214.172 -334.081 -273.795C-208.511 -333.418 -247.814 -396.543 -122.244 -456.166C3.32577 -515.789 42.6294 -452.663 168.236 -512.303C293.842 -571.943 254.502 -635.052 380.072 -694.674" stroke="#0E864C" stroke-opacity="0.07" stroke-width="5" stroke-miterlimit="10"/>
<path d="M-910.439 368.245C-784.869 308.623 -745.566 371.748 -619.996 312.125C-494.425 252.502 -533.729 189.377 -408.195 129.771C-282.661 70.1654 -243.321 133.274 -117.751 73.6507C7.8189 14.0278 -31.4848 -49.0974 94.0854 -108.72C219.655 -168.343 258.959 -105.218 384.565 -164.858C510.172 -224.498 470.832 -287.606 596.402 -347.229" stroke="#0E864C" stroke-opacity="0.07" stroke-width="5" stroke-miterlimit="10"/>
<path d="M-969.475 273.429C-843.904 213.806 -804.521 277.06 -678.951 217.437C-553.381 157.814 -592.764 94.5608 -467.23 34.9551C-341.696 -24.6506 -302.277 38.5858 -176.706 -21.037C-51.1364 -80.6599 -90.5199 -143.913 35.0502 -203.536C160.62 -263.159 200.004 -199.906 325.61 -259.546C451.216 -319.186 411.797 -382.422 537.367 -442.045" stroke="#0E864C" stroke-opacity="0.07" stroke-width="5" stroke-miterlimit="10"/>
<path d="M-753.145 620.875C-627.575 561.252 -588.271 624.377 -462.701 564.754C-337.131 505.132 -376.435 442.006 -250.901 382.401C-125.367 322.795 -86.0269 385.903 39.5432 326.28C165.113 266.657 125.81 203.532 251.38 143.909C376.95 84.2864 416.254 147.412 541.86 87.7717C667.466 28.1317 628.126 -34.9765 753.696 -94.5993" stroke="#0E864C" stroke-opacity="0.07" stroke-width="5" stroke-miterlimit="10"/>
<mask id="path-25-inside-1_0_1" fill="white">
<path d="M-1133 -42H307V79H-1133V-42Z"/>
</mask>
<path d="M-1133 -42H307V79H-1133V-42Z" fill="white"/>
<path d="M-1133 -41H307V-43H-1133V-41Z" fill="#A89D9D" mask="url(#path-25-inside-1_0_1)"/>
<g clip-path="url(#clip1_0_1)">
<rect width="52" height="36" rx="3" fill="black"/>
<path d="M10.2917 2.8125C7.74886 2.8125 5.6875 4.23959 5.6875 6C5.6875 7.76041 7.74886 9.1875 10.2917 9.1875C12.8345 9.1875 14.8958 7.76041 14.8958 6C14.8958 4.23959 12.8345 2.8125 10.2917 2.8125Z" fill="white"/>
<path d="M5.95833 11.8125C5.80876 11.8125 5.6875 11.8964 5.6875 12V31.5C5.6875 31.6036 5.80876 31.6875 5.95833 31.6875H14.625C14.7746 31.6875 14.8958 31.6036 14.8958 31.5V12C14.8958 11.8964 14.7746 11.8125 14.625 11.8125H5.95833Z" fill="white"/>
<path d="M20.0417 11.8125C19.8921 11.8125 19.7708 11.8964 19.7708 12V31.5C19.7708 31.6036 19.8921 31.6875 20.0417 31.6875H28.7083C28.8579 31.6875 28.9792 31.6036 28.9792 31.5V21C28.9792 20.2541 29.4072 19.5387 30.169 19.0113C30.9309 18.4838 31.9642 18.1875 33.0417 18.1875C34.1191 18.1875 35.1524 18.4838 35.9143 19.0113C36.6762 19.5387 37.1042 20.2541 37.1042 21V31.5C37.1042 31.6036 37.2254 31.6875 37.375 31.6875H46.0417C46.1912 31.6875 46.3125 31.6036 46.3125 31.5V18.5704C46.3125 14.9303 41.7395 12.0825 36.508 12.4117C34.8946 12.5133 33.2994 12.791 31.8099 13.2329L28.9792 14.0728V12C28.9792 11.8964 28.8579 11.8125 28.7083 11.8125H20.0417Z" fill="white"/>
</g>
</g>
<rect x="-1132.5" y="-944.5" width="1439" height="1023" stroke="#A89D9D"/>
<defs>
<clipPath id="clip0_0_1">
<rect x="-1133" y="-945" width="1440" height="1024" fill="white"/>
</clipPath>
<clipPath id="clip1_0_1">
<rect width="304" height="36" fill="white" transform="translate(-84)"/>
</clipPath>
</defs>
</svg>
