<svg width="1920" height="77" viewBox="0 0 1920 77" fill="none" xmlns="http://www.w3.org/2000/svg">
<rect width="2550" height="77" fill="#F2DD1D"/>
<path fill-rule="evenodd" clip-rule="evenodd" d="M0 77L85 0H42.5L0 38.5V77Z" fill="black"/>
<path fill-rule="evenodd" clip-rule="evenodd" d="M85 77V38.5L42.5 77H85Z" fill="black"/>
<path fill-rule="evenodd" clip-rule="evenodd" d="M85 77L170 0H127.5L85 38.5V77Z" fill="black"/>
<path fill-rule="evenodd" clip-rule="evenodd" d="M170 77V38.5L127.5 77H170Z" fill="black"/>
<path fill-rule="evenodd" clip-rule="evenodd" d="M170 77L255 0H212.5L170 38.5V77Z" fill="black"/>
<path fill-rule="evenodd" clip-rule="evenodd" d="M255 77V38.5L212.5 77H255Z" fill="black"/>
<path fill-rule="evenodd" clip-rule="evenodd" d="M255 77L340 0H297.5L255 38.5V77Z" fill="black"/>
<path fill-rule="evenodd" clip-rule="evenodd" d="M340 77V38.5L297.5 77H340Z" fill="black"/>
<path fill-rule="evenodd" clip-rule="evenodd" d="M340 77L425 0H382.5L340 38.5V77Z" fill="black"/>
<path fill-rule="evenodd" clip-rule="evenodd" d="M425 77V38.5L382.5 77H425Z" fill="black"/>
<path fill-rule="evenodd" clip-rule="evenodd" d="M425 77L510 0H467.5L425 38.5V77Z" fill="black"/>
<path fill-rule="evenodd" clip-rule="evenodd" d="M510 77V38.5L467.5 77H510Z" fill="black"/>
<path fill-rule="evenodd" clip-rule="evenodd" d="M510 77L595 0H552.5L510 38.5V77Z" fill="black"/>
<path fill-rule="evenodd" clip-rule="evenodd" d="M595 77V38.5L552.5 77H595Z" fill="black"/>
<path fill-rule="evenodd" clip-rule="evenodd" d="M595 77L680 0H637.5L595 38.5V77Z" fill="black"/>
<path fill-rule="evenodd" clip-rule="evenodd" d="M680 77V38.5L637.5 77H680Z" fill="black"/>
<path fill-rule="evenodd" clip-rule="evenodd" d="M680 77L765 0H722.5L680 38.5V77Z" fill="black"/>
<path fill-rule="evenodd" clip-rule="evenodd" d="M765 77V38.5L722.5 77H765Z" fill="black"/>
<path fill-rule="evenodd" clip-rule="evenodd" d="M765 77L850 0H807.5L765 38.5V77Z" fill="black"/>
<path fill-rule="evenodd" clip-rule="evenodd" d="M850 77V38.5L807.5 77H850Z" fill="black"/>
<path fill-rule="evenodd" clip-rule="evenodd" d="M850 77L935 0H892.5L850 38.5V77Z" fill="black"/>
<path fill-rule="evenodd" clip-rule="evenodd" d="M935 77V38.5L892.5 77H935Z" fill="black"/>
<path fill-rule="evenodd" clip-rule="evenodd" d="M935 77L1020 0H977.5L935 38.5V77Z" fill="black"/>
<path fill-rule="evenodd" clip-rule="evenodd" d="M1020 77V38.5L977.5 77H1020Z" fill="black"/>
<path fill-rule="evenodd" clip-rule="evenodd" d="M1020 77L1105 0H1062.5L1020 38.5V77Z" fill="black"/>
<path fill-rule="evenodd" clip-rule="evenodd" d="M1105 77V38.5L1062.5 77H1105Z" fill="black"/>
<path fill-rule="evenodd" clip-rule="evenodd" d="M1105 77L1190 0H1147.5L1105 38.5V77Z" fill="black"/>
<path fill-rule="evenodd" clip-rule="evenodd" d="M1190 77V38.5L1147.5 77H1190Z" fill="black"/>
<path fill-rule="evenodd" clip-rule="evenodd" d="M1190 77L1275 0H1232.5L1190 38.5V77Z" fill="black"/>
<path fill-rule="evenodd" clip-rule="evenodd" d="M1275 77V38.5L1232.5 77H1275Z" fill="black"/>
<path fill-rule="evenodd" clip-rule="evenodd" d="M1275 77L1360 0H1317.5L1275 38.5V77Z" fill="black"/>
<path fill-rule="evenodd" clip-rule="evenodd" d="M1360 77V38.5L1317.5 77H1360Z" fill="black"/>
<path fill-rule="evenodd" clip-rule="evenodd" d="M1360 77L1445 0H1402.5L1360 38.5V77Z" fill="black"/>
<path fill-rule="evenodd" clip-rule="evenodd" d="M1445 77V38.5L1402.5 77H1445Z" fill="black"/>
<path fill-rule="evenodd" clip-rule="evenodd" d="M1445 77L1530 0H1487.5L1445 38.5V77Z" fill="black"/>
<path fill-rule="evenodd" clip-rule="evenodd" d="M1530 77V38.5L1487.5 77H1530Z" fill="black"/>
<path fill-rule="evenodd" clip-rule="evenodd" d="M1530 77L1615 0H1572.5L1530 38.5V77Z" fill="black"/>
<path fill-rule="evenodd" clip-rule="evenodd" d="M1615 77V38.5L1572.5 77H1615Z" fill="black"/>
<path fill-rule="evenodd" clip-rule="evenodd" d="M1615 77L1700 0H1657.5L1615 38.5V77Z" fill="black"/>
<path fill-rule="evenodd" clip-rule="evenodd" d="M1700 77V38.5L1657.5 77H1700Z" fill="black"/>
<path fill-rule="evenodd" clip-rule="evenodd" d="M1700 77L1785 0H1742.5L1700 38.5V77Z" fill="black"/>
<path fill-rule="evenodd" clip-rule="evenodd" d="M1785 77V38.5L1742.5 77H1785Z" fill="black"/>
<path fill-rule="evenodd" clip-rule="evenodd" d="M1785 77L1870 0H1827.5L1785 38.5V77Z" fill="black"/>
<path fill-rule="evenodd" clip-rule="evenodd" d="M1870 77V38.5L1827.5 77H1870Z" fill="black"/>
<path fill-rule="evenodd" clip-rule="evenodd" d="M1870 77L1955 0H1912.5L1870 38.5V77Z" fill="black"/>
<path fill-rule="evenodd" clip-rule="evenodd" d="M1955 77V38.5L1912.5 77H1955Z" fill="black"/>
</svg>
